<?xml version="1.0" standalone="no"?>
<!DOCTYPE svg PUBLIC "-//W3C//DTD SVG 20010904//EN"
 "http://www.w3.org/TR/2001/REC-SVG-20010904/DTD/svg10.dtd">
<svg version="1.0" xmlns="http://www.w3.org/2000/svg"
 width="300.000000pt" height="210.000000pt" viewBox="0 0 300.000000 210.000000"
 preserveAspectRatio="xMidYMid meet">
<metadata>
Created by potrace 1.10, written by Peter Selinger 2001-2011
</metadata>
<g transform="translate(0.000000,210.000000) scale(0.100000,-0.100000)"
fill="#000000" stroke="none">
<path d="M2317 1873 c3 -10 16 -36 29 -58 12 -22 25 -60 29 -85 8 -50 21 -78
66 -144 31 -47 46 -59 34 -28 -4 12 -3 14 5 6 13 -13 3 -44 -15 -44 -7 0 -18
7 -25 15 -7 8 -18 15 -24 15 -6 0 -24 13 -39 29 -63 65 -170 76 -239 26 -18
-14 -44 -29 -58 -35 -14 -6 -30 -16 -35 -23 -32 -38 -70 -52 -137 -49 l-68 3
0 99 0 100 -120 0 c-113 0 -120 -1 -120 -20 0 -19 7 -20 100 -20 l100 0 0 -98
0 -98 65 4 65 4 0 -36 c0 -20 -11 -94 -25 -164 -14 -70 -29 -162 -32 -204 -6
-73 -5 -78 14 -78 18 0 21 9 26 83 3 45 13 116 22 157 9 41 22 116 29 165 l12
90 33 -2 c22 -1 44 -12 65 -31 44 -42 68 -52 124 -52 49 0 50 -1 66 -39 18
-46 40 -61 91 -61 25 0 43 8 60 25 l25 24 0 -34 c0 -47 42 -95 82 -95 26 0 29
2 18 15 -7 9 -18 14 -24 12 -6 -2 -23 16 -38 40 -30 46 -33 59 -20 67 9 5 73
-76 85 -106 7 -20 22 -23 32 -8 4 6 -8 28 -27 49 -69 78 -70 81 -50 81 25 0
82 -61 82 -88 0 -29 34 -29 54 0 14 20 18 21 43 8 16 -8 39 -24 53 -35 14 -12
48 -30 75 -40 28 -9 72 -31 98 -48 26 -16 50 -28 52 -25 2 2 -9 43 -26 91 -16
49 -29 99 -29 112 0 31 -64 103 -107 122 -38 15 -91 17 -127 4 -18 -7 -28 -6
-36 4 -14 17 -8 20 50 28 40 6 69 18 125 52 22 14 54 25 71 25 58 0 49 16 -39
69 -27 17 -54 23 -99 24 l-61 1 -48 -52 c-26 -29 -53 -68 -60 -87 -13 -36 -30
-42 -35 -12 -1 9 1 15 5 12 11 -6 31 40 31 72 0 14 -12 52 -26 84 -23 51 -35
64 -104 109 -43 28 -86 60 -96 71 -21 24 -35 25 -27 2z m93 -80 c0 -8 8 -13
17 -11 11 2 18 -4 20 -17 1 -11 0 -14 -3 -7 -3 6 -10 12 -14 12 -5 0 6 -33 25
-72 19 -40 37 -86 40 -103 4 -24 3 -26 -4 -10 -6 11 -10 14 -10 6 -1 -10 -4
-11 -15 -2 -17 14 -58 93 -44 85 5 -3 4 3 -3 14 -7 12 -18 18 -24 15 -5 -3 -5
0 2 7 9 10 9 18 1 34 -11 20 -10 20 7 6 17 -14 18 -13 12 3 -4 10 -7 21 -7 23
0 3 -4 3 -9 -1 -5 -3 -13 0 -17 6 -4 8 -3 9 4 5 16 -10 15 7 0 23 -11 10 -10
11 5 6 9 -4 17 -14 17 -22z m101 -106 c1 -34 2 -37 8 -17 10 37 22 10 27 -61
4 -58 -3 -72 -25 -46 -8 10 -7 19 4 33 8 10 14 26 14 34 0 10 -3 8 -9 -5 -6
-14 -9 -15 -9 -4 -1 8 -6 20 -13 27 -15 15 -23 96 -9 87 6 -3 11 -25 12 -48z
m229 -42 c-7 -8 -16 -12 -21 -9 -5 3 -6 -3 -2 -12 5 -13 3 -15 -7 -9 -9 5 -11
4 -6 -3 4 -7 1 -12 -6 -13 -7 0 -4 -5 7 -10 20 -9 20 -9 0 -6 -14 2 -20 10
-19 29 0 17 -4 24 -13 21 -10 -4 -11 -9 -2 -19 8 -10 8 -14 0 -14 -6 0 -11 -6
-11 -14 0 -12 11 -14 52 -11 55 5 79 15 35 15 -15 0 -27 4 -27 9 0 5 9 7 20 4
11 -3 26 -1 33 4 6 5 26 6 42 2 31 -7 19 -12 -25 -10 -23 1 -23 0 -5 -8 17 -8
18 -10 3 -10 -10 -1 -18 -5 -18 -10 0 -13 -64 -41 -95 -41 -16 0 -24 -4 -19
-11 4 -7 -4 -10 -22 -8 -16 2 -34 0 -39 -3 -6 -4 -11 3 -12 15 0 12 1 16 4 9
6 -15 23 -6 19 11 -1 7 -1 9 1 4 3 -4 10 -4 16 0 7 4 5 -2 -3 -12 -14 -17 -14
-18 4 -8 26 14 29 43 8 68 -9 11 -13 17 -8 13 5 -5 16 1 24 13 16 23 39 34 79
37 21 2 24 0 13 -13z m78 0 c22 -6 31 -25 12 -25 -5 0 -10 5 -10 11 0 8 -4 9
-13 0 -8 -6 -17 -8 -20 -4 -4 3 -13 0 -21 -6 -8 -7 -20 -10 -26 -6 -16 10 19
46 39 41 9 -2 26 -7 39 -11z m-535 -29 c2 2 10 -2 16 -10 7 -8 19 -12 26 -10
7 3 18 -3 24 -14 15 -28 -22 -22 -49 9 l-21 24 16 -27 c11 -17 13 -28 6 -33
-6 -3 -11 -1 -11 5 0 6 -4 9 -9 6 -5 -3 -12 1 -15 10 -3 8 -10 13 -15 10 -4
-3 -16 3 -25 13 -20 22 -4 33 30 20 12 -4 24 -6 27 -3z m-61 -26 c14 -10 29
-16 33 -12 5 4 5 1 1 -6 -5 -7 -11 -11 -14 -8 -3 3 -12 0 -20 -7 -11 -8 -14
-8 -9 0 8 13 -10 12 -32 -1 -9 -6 -12 -5 -8 1 4 6 0 16 -9 23 -12 11 -12 15
-2 21 20 13 33 11 60 -11z m-62 -25 c-1 -5 -12 -9 -26 -8 -13 1 -24 -2 -24 -6
0 -5 -9 -11 -20 -14 -31 -8 -23 6 13 25 34 18 59 19 57 3z m161 -32 c5 -27 6
-53 2 -49 -2 2 -16 -2 -30 -9 -41 -22 -50 -5 -14 27 17 15 27 28 21 28 -6 0
-24 -15 -41 -34 -27 -31 -49 -39 -64 -24 -3 3 8 17 25 32 21 17 26 26 16 26
-9 0 -16 -3 -16 -7 0 -5 -19 -28 -41 -52 -30 -32 -43 -41 -52 -32 -8 8 -5 17
10 33 11 13 23 30 27 38 4 8 -6 0 -22 -17 -15 -18 -32 -33 -35 -33 -13 0 -7
23 11 43 19 22 1 16 -30 -10 -10 -9 -18 -11 -22 -4 -12 19 41 43 88 40 24 -2
42 -1 39 4 -2 4 25 7 61 7 36 0 67 -3 67 -7z m104 -11 c11 -6 15 -12 9 -12 -6
0 -10 -11 -9 -25 2 -14 0 -25 -4 -25 -15 0 -51 32 -46 41 3 5 -1 6 -10 3 -14
-6 -14 -8 2 -21 16 -13 16 -13 -4 -3 -22 10 -22 40 -1 40 5 0 7 4 4 8 -7 12
36 7 59 -6z m98 -26 c16 -12 15 -14 -12 -19 -16 -3 -36 -13 -44 -22 -9 -8 -18
-11 -21 -6 -4 5 1 17 10 25 8 9 12 16 7 16 -4 0 -1 5 7 10 20 13 32 12 53 -4z
m78 -23 c19 -11 29 -26 29 -40 l0 -24 28 20 c15 10 50 22 77 25 l50 5 -47 -18
c-25 -10 -61 -29 -79 -42 -18 -12 -29 -18 -25 -11 9 16 -16 16 -32 0 -6 -6
-15 -8 -19 -3 -5 4 -2 10 5 12 10 4 10 8 1 19 -6 8 -8 14 -4 14 4 0 2 7 -5 15
-7 8 -9 15 -5 15 4 0 2 7 -5 15 -16 20 -5 19 31 -2z m-345 -28 c1 -8 -2 -15
-6 -15 -5 0 -17 -3 -27 -6 -16 -5 -16 -4 1 10 11 9 16 16 12 16 -4 0 -4 5 -1
11 8 12 18 5 21 -16z m89 15 c-3 -5 0 -7 8 -4 8 3 20 -2 27 -11 12 -14 10 -15
-14 -11 -14 3 -24 1 -21 -3 7 -12 65 -19 71 -9 9 14 24 9 24 -10 0 -14 -9 -18
-45 -19 -25 0 -53 -4 -62 -9 -57 -25 -72 4 -18 34 17 10 17 11 3 12 -23 0 -34
20 -17 31 19 12 52 11 44 -1z m-140 -20 c-21 -24 -47 -22 -32 1 6 10 19 17 29
16 15 -1 16 -3 3 -17z m330 10 c19 0 37 -34 29 -55 -4 -9 -13 -14 -21 -11 -8
3 -11 1 -8 -4 9 -15 -11 -12 -24 4 -8 9 -8 15 -1 18 5 1 0 9 -12 17 -21 13
-22 13 -9 -2 16 -20 2 -23 -19 -4 -8 6 -6 1 5 -12 11 -14 14 -21 8 -17 -7 4
-13 3 -13 -2 0 -5 -7 -9 -15 -9 -8 0 -15 4 -15 9 0 4 4 8 10 8 5 0 7 7 4 15
-4 8 1 17 10 21 9 3 14 10 11 14 -3 5 5 6 17 3 19 -4 21 -3 8 7 -13 10 -12 11
3 6 10 -3 25 -6 32 -6z m264 -25 c18 -5 22 -4 16 6 -5 9 -3 9 6 -1 8 -8 19
-19 25 -25 7 -7 -10 -10 -55 -9 -36 1 -70 2 -76 4 -5 1 -17 2 -25 1 -13 -1
-13 -3 -1 -10 8 -5 21 -7 30 -4 14 4 14 3 1 -7 -13 -10 -12 -11 3 -6 10 3 28
1 40 -6 20 -10 21 -10 8 5 -12 15 -10 17 21 17 18 0 44 -8 57 -17 15 -10 21
-11 16 -3 -5 8 -4 11 2 7 6 -4 13 -16 16 -27 4 -17 2 -18 -15 -9 -12 6 -40 9
-64 6 -24 -2 -47 0 -53 6 -6 6 -11 8 -11 4 0 -4 -13 -1 -30 8 -16 8 -32 15
-35 15 -3 0 -6 3 -7 8 -2 10 84 53 97 49 5 -3 21 -8 34 -12z m-434 -55 c-3 -5
7 -5 25 2 17 5 34 8 37 4 6 -5 -32 -45 -46 -47 -65 -12 -88 3 -50 32 26 20 44
25 34 9z m381 -42 c38 -18 68 -38 67 -43 -2 -16 17 -45 29 -45 6 0 3 9 -7 20
-18 20 -18 21 3 27 25 6 20 23 -7 23 -9 0 -26 6 -36 14 -18 13 -16 14 23 12
46 -2 78 -25 69 -49 -4 -10 -15 -13 -34 -10 -28 5 -27 5 17 -43 25 -27 36 -41
25 -32 -11 8 -28 14 -37 13 -9 -2 -19 4 -22 12 -3 8 -10 12 -15 9 -5 -3 -15 2
-22 11 -8 9 -12 17 -9 17 9 2 -26 45 -40 48 -8 2 -21 9 -28 16 -7 6 -18 12
-24 12 -6 0 1 -9 16 -21 14 -11 23 -25 20 -31 -5 -7 -12 -4 -21 7 -7 11 -13
15 -13 11 0 -5 -6 -4 -12 2 -7 6 -17 10 -23 9 -5 -1 -14 8 -20 21 -12 28 -22
28 -21 0 1 -30 -33 -37 -41 -9 -3 12 -9 21 -14 21 -5 0 -9 4 -9 9 0 5 26 8 58
6 42 -2 78 -12 128 -37z"/>
<path d="M2418 1729 c-3 -8 2 -19 9 -24 8 -6 16 -19 18 -30 2 -11 4 -22 6 -25
1 -3 3 -11 3 -19 1 -8 7 -16 15 -19 16 -5 9 23 -24 87 -14 28 -24 39 -27 30z"/>
<path d="M155 1691 c-74 -34 -105 -93 -106 -199 0 -81 10 -111 91 -268 50 -95
64 -133 68 -177 4 -49 7 -57 25 -57 18 0 19 5 15 64 -5 53 -15 82 -56 159
l-51 95 57 7 c107 13 181 64 197 135 6 29 9 30 61 30 47 0 54 2 54 20 0 18 -7
20 -55 20 l-55 0 0 33 c0 51 -39 109 -90 135 -53 27 -101 28 -155 3z m135 -34
c45 -23 70 -73 70 -141 0 -106 -50 -152 -177 -166 l-63 -6 -16 49 c-22 66 -16
182 11 219 39 52 119 73 175 45z"/>
<path d="M220 1632 c0 -7 -8 -12 -18 -12 -22 0 -54 -26 -71 -57 -14 -27 -23
-126 -11 -118 5 3 7 12 4 19 -3 8 0 32 6 55 11 43 62 91 96 91 10 0 26 5 34
11 13 9 13 10 -1 6 -9 -3 -22 0 -28 6 -8 8 -11 8 -11 -1z"/>
<path d="M709 1701 c-49 -16 -79 -43 -105 -97 -22 -46 -27 -67 -26 -137 1 -95
11 -130 54 -174 41 -42 96 -54 236 -50 97 2 111 0 106 -13 -15 -35 -44 -168
-44 -202 0 -31 4 -38 20 -38 16 0 20 7 20 38 0 20 9 73 21 117 11 44 23 92 26
108 l5 27 -72 0 -72 0 24 29 c37 43 51 108 46 204 -7 132 -51 184 -162 193
-28 2 -63 0 -77 -5z m128 -48 c54 -25 76 -84 71 -188 -5 -100 -29 -145 -88
-169 -53 -21 -83 -20 -129 4 -54 27 -75 75 -75 171 0 61 5 84 25 120 40 73
120 98 196 62z"/>
<path d="M746 1628 c-36 -13 -66 -38 -66 -55 0 -7 -4 -13 -10 -13 -5 0 -10 -6
-10 -12 0 -7 12 0 27 17 31 36 61 52 91 50 17 -1 19 1 11 12 -6 7 -12 13 -13
12 0 0 -14 -5 -30 -11z"/>
<path d="M1267 1696 c-80 -29 -120 -98 -119 -206 1 -73 17 -126 67 -217 l35
-63 -80 0 c-70 0 -80 -2 -80 -17 0 -17 15 -18 195 -15 l195 4 0 -96 c0 -89 1
-96 20 -96 19 0 20 7 20 110 l0 110 -112 0 -113 0 -27 49 -28 48 57 7 c154 18
225 107 201 249 -12 70 -53 119 -113 136 -51 14 -71 13 -118 -3z m144 -52 c35
-31 52 -75 51 -131 -1 -103 -64 -158 -181 -158 l-64 0 -14 40 c-19 54 -19 154
0 191 16 31 52 68 77 77 29 12 110 0 131 -19z"/>
<path d="M1335 1630 c5 -9 2 -10 -13 -6 -15 5 -31 -2 -60 -28 -21 -19 -39 -41
-40 -48 0 -7 -4 -28 -7 -45 -3 -18 -2 -33 3 -33 5 0 10 15 11 33 4 55 4 57 15
57 6 0 17 9 23 20 7 10 28 22 48 26 36 6 44 17 23 30 -7 5 -8 3 -3 -6z"/>
<path d="M1867 1643 c-4 -3 -7 -24 -7 -46 0 -50 9 -43 16 12 5 41 3 47 -9 34z"/>
<path d="M1604 1629 c-7 -12 12 -29 33 -29 6 0 23 4 37 9 14 6 26 6 28 1 2 -5
18 -5 38 0 30 7 31 8 10 10 -14 1 -44 2 -67 1 -23 -1 -44 3 -48 9 -8 13 -22
13 -31 -1z"/>
<path d="M527 1493 c-4 -3 -7 -14 -7 -24 0 -20 -41 -36 -59 -24 -6 3 -11 1
-11 -4 0 -11 8 -13 57 -15 21 -1 28 5 34 25 7 27 -2 55 -14 42z"/>
<path d="M1525 1450 c3 -5 -1 -23 -10 -41 -19 -35 -11 -54 11 -25 16 23 19 76
3 76 -5 0 -7 -4 -4 -10z"/>
<path d="M1805 1440 c-13 -21 18 -36 60 -29 22 3 32 7 23 8 -10 0 -18 5 -18
11 0 5 -7 7 -15 4 -8 -4 -22 -1 -29 5 -11 9 -16 9 -21 1z"/>
<path d="M1996 1425 c-4 -14 -4 -30 -2 -34 3 -4 1 -23 -3 -42 -14 -54 -23
-124 -15 -116 8 8 13 26 17 67 2 14 6 30 9 35 5 9 8 115 2 115 -1 0 -5 -11 -8
-25z"/>
<path d="M974 1407 c0 -17 -4 -41 -8 -52 -5 -11 -10 -29 -11 -39 -2 -18 -1
-18 11 -1 7 10 11 22 8 26 -3 5 -1 9 5 9 5 0 8 9 6 20 -2 11 0 22 5 25 9 6 1
45 -9 45 -4 0 -7 -15 -7 -33z"/>
<path d="M404 1376 c-14 -28 -32 -43 -82 -67 -35 -17 -74 -31 -88 -31 -13 0
-21 -4 -19 -9 4 -6 46 -6 65 1 3 1 13 2 22 1 10 -1 23 3 30 8 7 6 27 22 44 36
31 25 62 80 51 92 -3 3 -14 -11 -23 -31z"/>
<path d="M1483 1347 c-12 -19 -56 -45 -94 -54 -18 -5 -35 -15 -37 -23 -5 -13
-3 -13 11 -1 10 7 17 9 17 3 0 -5 9 -8 20 -5 11 3 20 9 20 14 0 5 6 9 14 9 17
0 76 48 76 61 0 13 -18 11 -27 -4z"/>
<path d="M1039 1258 c-1 -7 -1 -30 -1 -51 0 -25 -3 -35 -11 -30 -7 3 -9 3 -5
-1 3 -4 2 -23 -3 -42 -10 -34 -17 -74 -23 -128 -4 -34 -25 -50 -44 -34 -10 9
-16 8 -22 -2 -18 -29 21 -44 80 -31 3 1 5 34 5 74 1 39 5 81 9 92 11 26 16 44
19 72 1 13 5 23 10 23 11 0 9 58 -3 65 -5 3 -10 0 -11 -7z"/>
<path d="M630 1250 c0 -5 9 -12 20 -15 11 -4 18 -10 15 -15 -8 -14 61 -32 127
-33 35 -1 63 3 65 9 2 6 -21 11 -59 11 -77 1 -84 3 -131 30 -20 12 -37 18 -37
13z"/>
<path d="M2032 1204 c-65 -33 -77 -63 -80 -215 -4 -152 1 -166 58 -154 25 5
30 10 24 23 -13 28 -16 246 -5 290 14 51 46 65 73 32 16 -19 18 -43 18 -181 0
-92 4 -160 10 -164 5 -3 25 -3 44 0 24 5 33 11 30 23 -2 10 -5 81 -7 160 -3
136 -4 143 -27 167 -33 32 -95 41 -138 19z"/>
<path d="M2524 1210 c-28 -4 -60 -13 -72 -19 -30 -16 -52 -62 -52 -109 0 -59
15 -71 90 -74 l65 -3 -1 -35 c0 -19 -2 -57 -5 -85 l-4 -50 44 -3 c37 -3 43 -1
38 13 -4 8 -1 50 5 91 14 89 11 94 -71 93 -73 -1 -96 21 -86 81 10 59 43 90
95 90 29 0 40 -4 40 -15 0 -23 37 -55 63 -55 20 0 22 4 19 40 -4 36 -7 40 -32
40 -15 0 -40 2 -56 4 -16 2 -52 1 -80 -4z"/>
<path d="M870 1201 c0 -12 29 -23 41 -15 16 10 9 20 -16 22 -14 1 -25 -2 -25
-7z"/>
<path d="M1540 1188 c0 -23 12 -58 19 -58 4 0 7 10 5 23 -1 12 -3 28 -3 35 -1
6 -5 12 -11 12 -5 0 -10 -6 -10 -12z"/>
<path d="M1090 1141 c0 -15 9 -20 44 -22 24 -2 42 -1 39 4 -2 4 1 7 6 7 6 0
11 -5 11 -11 0 -5 4 -8 8 -5 5 3 28 6 53 7 24 2 47 7 51 13 5 8 8 8 8 0 0 -6
23 -12 55 -13 30 -1 55 2 55 7 0 5 -21 8 -47 7 -27 -1 -52 1 -58 5 -9 5 -30 6
-37 1 -2 -1 -38 -3 -80 -4 -54 -1 -79 2 -83 11 -7 19 -25 14 -25 -7z"/>
<path d="M1547 1077 c-3 -7 -3 -26 0 -41 8 -41 -14 -75 -44 -70 -19 4 -24 1
-21 -13 2 -12 14 -18 40 -19 21 -1 40 2 44 7 3 5 1 9 -4 9 -6 0 -7 14 -2 33 4
18 3 43 -2 56 -5 15 -4 28 3 37 7 9 8 14 1 14 -5 0 -12 -6 -15 -13z"/>
<path d="M2255 1055 c-27 -7 -41 -13 -30 -14 11 -1 28 -15 37 -32 15 -25 23
-30 50 -27 24 2 32 7 29 18 -2 8 -6 27 -9 43 -5 30 -6 30 -77 12z"/>
<path d="M273 1003 c4 -3 0 -15 -9 -25 -13 -14 -20 -15 -31 -7 -13 12 -14 10
-17 -23 -1 -13 36 -20 64 -12 14 3 16 17 11 67 -1 4 -6 7 -13 7 -6 0 -8 -3 -5
-7z"/>
<path d="M1875 970 c-10 -17 22 -47 35 -34 7 7 4 16 -9 28 -14 12 -21 14 -26
6z"/>
<path d="M1855 824 c-9 -9 -14 -23 -11 -31 3 -8 1 -23 -4 -34 -20 -37 7 -19
28 20 32 57 25 83 -13 45z"/>
<path d="M1312 814 c-24 -16 -30 -37 -9 -28 9 3 12 -6 9 -36 -3 -33 -7 -38
-18 -30 -37 31 -94 -38 -94 -113 0 -57 12 -66 40 -27 12 16 25 30 29 30 5 0
11 -19 15 -42 12 -75 56 -126 76 -89 8 16 7 18 -9 14 -38 -10 -58 85 -37 177
10 46 33 125 41 143 9 22 -12 23 -43 1z m-24 -140 c2 -12 -10 -32 -29 -49
l-32 -30 6 38 c10 62 48 90 55 41z"/>
<path d="M648 789 c-40 -20 -53 -45 -18 -34 11 3 20 5 20 3 0 -2 -7 -28 -15
-58 -8 -30 -15 -56 -15 -57 0 -2 6 -3 14 -3 8 0 40 23 70 51 l56 51 1 -48 c3
-122 -11 -168 -68 -221 -52 -49 -40 -58 17 -13 26 21 43 46 54 78 16 49 50
262 43 269 -9 8 -33 -9 -48 -35 -20 -36 -99 -99 -99 -80 0 8 7 36 16 62 9 26
15 49 13 51 -2 2 -21 -6 -41 -16z"/>
<path d="M1933 726 c-29 -25 -28 -35 9 -89 11 -16 9 -22 -20 -47 -42 -35 -26
-48 19 -14 49 36 55 51 32 83 -35 47 -35 50 -9 63 14 6 26 15 26 20 0 16 -29
8 -57 -16z"/>
<path d="M1043 725 c-24 -17 -66 -136 -56 -161 5 -13 10 -11 30 8 14 13 31 35
39 51 17 32 34 35 34 6 0 -26 17 -59 31 -59 12 0 69 61 69 74 0 5 -11 -1 -26
-14 -21 -21 -27 -22 -35 -10 -5 8 -8 39 -6 68 l4 52 -31 0 c-18 0 -41 -7 -53
-15z m37 -30 c0 -16 -51 -94 -62 -95 -9 0 5 48 26 88 16 32 36 35 36 7z"/>
<path d="M1421 723 c-24 -21 -60 -131 -51 -158 6 -17 8 -16 29 6 12 13 30 36
39 52 18 30 32 35 32 12 0 -21 22 -65 32 -65 13 0 68 59 68 72 0 6 -11 1 -26
-12 -21 -21 -27 -22 -34 -10 -14 21 -12 94 2 108 20 20 -66 15 -91 -5z m42
-31 c-9 -24 -57 -92 -65 -92 -8 0 13 65 32 99 12 24 42 17 33 -7z"/>
<path d="M884 715 c-30 -21 -47 -68 -40 -109 4 -20 11 -38 16 -41 12 -7 74 55
94 96 26 51 21 69 -17 69 -18 0 -42 -7 -53 -15z m46 -32 c0 -20 -39 -88 -46
-81 -12 12 -10 71 3 84 20 19 43 18 43 -3z"/>
<path d="M1605 704 c-20 -17 -24 -24 -11 -20 17 6 18 2 13 -36 -2 -24 -8 -51
-12 -60 -13 -33 14 -19 39 20 13 20 36 48 51 62 l27 25 -8 -63 c-4 -35 -3 -62
2 -62 18 0 88 54 76 58 -7 2 -19 -2 -28 -8 -23 -20 -29 -4 -17 53 6 28 9 54 8
55 -6 7 -36 -15 -80 -57 -43 -42 -44 -42 -36 -13 5 16 14 39 20 51 17 30 -6
28 -44 -5z"/>
<path d="M1607 537 c-18 -14 -20 -24 -18 -84 1 -54 21 -57 21 -3 0 34 3 40 21
40 19 0 21 -4 16 -35 -3 -19 -1 -37 4 -40 5 -4 9 11 9 34 0 22 5 42 13 44 10
4 10 6 0 6 -19 1 -16 31 3 31 8 0 13 4 9 10 -9 15 -35 0 -35 -21 0 -12 -7 -19
-20 -19 -22 0 -28 26 -7 33 6 2 9 7 6 11 -3 3 -13 0 -22 -7z"/>
<path d="M1400 520 c-11 -11 -20 -31 -20 -45 0 -44 65 -87 85 -55 3 6 -4 10
-17 10 -30 0 -48 17 -48 45 0 27 18 45 47 45 13 0 23 5 23 10 0 18 -49 11 -70
-10z"/>
<path d="M1920 475 c0 -45 3 -64 11 -59 6 3 9 17 6 30 -4 21 0 24 24 24 26 0
29 -4 29 -30 0 -16 5 -30 10 -30 6 0 10 28 10 65 0 37 -4 65 -10 65 -5 0 -10
-14 -10 -31 0 -27 -3 -30 -27 -27 -22 2 -27 8 -25 25 2 12 -2 24 -8 28 -6 4
-10 -16 -10 -60z"/>
<path d="M2132 478 c3 -58 5 -62 29 -65 33 -4 51 17 47 54 -2 23 -8 28 -30 28
-23 -1 -28 4 -28 22 0 13 -5 23 -10 23 -7 0 -10 -23 -8 -62z m62 -3 c8 -23 -4
-45 -25 -45 -13 0 -19 7 -19 23 0 37 32 53 44 22z"/>
<path d="M1490 479 c-9 -16 -8 -26 5 -45 30 -46 85 -15 71 39 -5 22 -12 27
-36 27 -19 0 -33 -7 -40 -21z m58 -22 c3 -21 -1 -27 -17 -27 -25 0 -34 14 -26
41 10 29 39 20 43 -14z"/>
<path d="M1694 474 c-11 -45 31 -83 59 -55 8 8 4 11 -15 11 -15 0 -30 5 -33
10 -4 6 7 10 25 10 27 0 31 3 28 23 -2 16 -11 23 -30 25 -23 3 -29 -2 -34 -24z"/>
<path d="M1784 486 c-16 -42 16 -87 52 -71 17 8 17 9 -6 13 -40 6 -48 22 -11
22 28 0 32 3 29 23 -4 27 -55 38 -64 13z"/>
<path d="M2033 467 c5 -47 13 -56 47 -55 29 1 30 3 30 45 0 23 -4 43 -10 43
-5 0 -10 -16 -10 -35 0 -28 -4 -35 -20 -35 -16 0 -20 7 -20 35 0 19 -5 35 -10
35 -6 0 -9 -15 -7 -33z"/>
</g>
</svg>
